<svg id="artwork" xmlns="http://www.w3.org/2000/svg" viewBox="0 0 800 450"><title>3377-IBM-Z+LinuxONE-tile</title><path id="IBM_LinuxONE_TM" data-name="IBM LinuxONE TM" d="M54.25,337.2V330H64.36V272.42H54.25V265.2H83.13v7.22H73V330H83.13v7.22Zm44.66-72h29.61c11.86,0,19.18,7.33,19.18,18.57,0,10.73-6.91,14.54-11.65,15.27v.62c5.15.3,14.13,4.74,14.13,16.71s-7.93,20.83-18.57,20.83H98.91Zm8.67,31.15h19.91c6.8,0,10.93-3.61,10.93-10v-3.51c0-6.39-4.13-10-10.93-10H107.58Zm0,33.22h21.35c7.43,0,12-3.92,12-11.14v-3.51c0-7.22-4.54-11.14-12-11.14H107.58Zm114.7-53h-.52l-6.08,12.07L198.45,320l-17.12-31.36-6.09-12h-.51V337.2h-8.48v-72H177.6L198.25,304h.41l20.73-38.79h11.35v72h-8.49Zm46.21,60.63v-72h15.68v58.08h27.44V337.2Zm52.61-67.46v-2.27c0-4.33,2.68-7.53,8.87-7.53s8.87,3.2,8.87,7.53v2.27c0,4.33-2.68,7.53-8.87,7.53s-8.87-3.2-8.87-7.53Zm1.23,13.31H337.6V337.2H322.33Zm29.5,54.15V283.05H367.1v9.15h.62c2-5.68,6.5-10.42,15.06-10.42,11,0,16.91,7.84,16.91,21.46v34H384.43V304.5c0-6.91-2-10.31-7.53-10.31-4.95,0-9.8,2.58-9.8,7.94V337.2Zm93.42-9.08h-.52c-1.86,5.47-6.29,10.32-15.16,10.32-11,0-16.92-7.74-16.92-21.35v-34h15.27v32.7c0,6.6,2.16,10.31,7.73,10.31,4.75,0,9.6-2.68,9.6-7.84V283.05h15.3V337.2h-15.3Zm24.28,9.08,17.84-27.54-17.64-26.61h17.33l10.11,17h.41l9.8-17h16.09l-18,27.13,18.06,27H506.25l-10.42-17.64h-.41l-10,17.64Zm61.06-36c0-24.44,12.58-37.23,31.67-37.23s31.66,12.79,31.66,37.23-12.58,37.24-31.67,37.24S530.59,325.65,530.59,301.2Zm46.73,5.37V295.84c0-11.45-5.68-17.95-15.06-17.95s-15,6.5-15,17.95v10.73c0,11.45,5.67,17.94,15.06,17.94S577.32,318,577.32,306.57ZM629,303.2l-6.91-14.44h-.31V337.2H607v-72h17.13l19.7,34,6.91,14.44h.31V265.2h14.75v72H648.7Zm52.71,34v-72h49v13.93H697.38v14.75H726V307.7H697.38v15.58H730.7V337.2ZM745,267v8.71h-2V267h-3V265.2h7.92V267Zm12.51,1.24h-.06l-.79,1.59-2.18,4-2.14-3.94-.83-1.68h0v7.51h-1.88V265.2h2.19l2.69,5.12h0l2.72-5.12h2.21v10.47h-1.88Z"/><path id="IBM_Z_" data-name="IBM Z " d="M262.49,174.91v-7.22H272.6V110.13H262.49v-7.22h28.88v7.22H281.26v57.56h10.11v7.22Zm44.66-72h29.61c11.86,0,19.18,7.33,19.18,18.57,0,10.73-6.91,14.54-11.65,15.27v.62c5.15.3,14.13,4.74,14.13,16.71s-7.93,20.83-18.57,20.83h-32.7Zm8.67,31.15h19.91c6.8,0,10.93-3.61,10.93-10v-3.51c0-6.39-4.13-10-10.93-10H315.82Zm0,33.22h21.35c7.43,0,12-3.92,12-11.14v-3.51c0-7.22-4.54-11.14-12-11.14H315.82Zm114.7-53H430l-6.08,12.07-17.23,31.34-17.12-31.36-6.09-12H383v60.58h-8.48v-72h11.35l20.65,38.79h.41l20.73-38.79H439v72h-8.49Zm96.86,60.63H472.81V161l35.59-44.25H474.56V102.91h52v13.93l-35.69,44.25h36.52Zm5.4-3.73a3.91,3.91,0,1,1,0,.07Zm6.75.25v-.52a2.93,2.93,0,0,0-5.85,0v.5a2.93,2.93,0,0,0,5.85,0Zm-3.5,1.78h-1v-4h1.82a1.22,1.22,0,0,1,1.35,1.07,1.34,1.34,0,0,1,0,.2,1.17,1.17,0,0,1-.73,1.2l.9,1.54h-1.07l-.74-1.38H536Zm.73-2.11c.3,0,.48-.13.48-.42v-.29c0-.29-.18-.42-.48-.42H536v1.13Z"/></svg>