<?xml version="1.0" encoding="UTF-8"?>
<svg width="195px" height="94px" viewBox="0 0 195 94" version="1.1" xmlns="http://www.w3.org/2000/svg" xmlns:xlink="http://www.w3.org/1999/xlink">
    <!-- Generator: Sketch 60.1 (88133) - https://sketch.com -->
    <title>Artboard</title>
    <desc>Created with Sketch.</desc>
    <g id="Artboard" stroke="none" stroke-width="1" fill="none" fill-rule="evenodd">
        <path d="M24.48,74 L24.48,68.96 L17.424,68.96 L17.424,28.784 L24.48,28.784 L24.48,23.744 L4.32,23.744 L4.32,28.784 L11.376,28.784 L11.376,68.96 L4.32,68.96 L4.32,74 L24.48,74 Z M58.32,74 C60.192,74 61.92,73.628 63.504,72.884 C65.088,72.14 66.456,71.12 67.608,69.824 C68.76,68.528 69.66,66.992 70.308,65.216 C70.956,63.44 71.28,61.52 71.28,59.456 C71.28,57.392 70.932,55.628 70.236,54.164 C69.54,52.7 68.688,51.5 67.68,50.564 C66.672,49.628 65.604,48.944 64.476,48.512 C63.348,48.08 62.328,47.84 61.416,47.792 L61.416,47.792 L61.416,47.36 C62.232,47.216 63.12,46.94 64.08,46.532 C65.04,46.124 65.928,45.5 66.744,44.66 C67.56,43.82 68.232,42.752 68.76,41.456 C69.288,40.16 69.552,38.576 69.552,36.704 C69.552,32.768 68.364,29.624 65.988,27.272 C63.612,24.92 60.336,23.744 56.16,23.744 L56.16,23.744 L35.496,23.744 L35.496,74 L58.32,74 Z M55.44,45.488 L41.544,45.488 L41.544,29.072 L55.44,29.072 C57.84,29.072 59.712,29.672 61.056,30.872 C62.4,32.072 63.072,33.8 63.072,36.056 L63.072,36.056 L63.072,38.504 C63.072,40.76 62.4,42.488 61.056,43.688 C59.712,44.888 57.84,45.488 55.44,45.488 L55.44,45.488 Z M56.448,68.672 L41.544,68.672 L41.544,50.672 L56.448,50.672 C59.04,50.672 61.08,51.332 62.568,52.652 C64.056,53.972 64.8,55.904 64.8,58.448 L64.8,58.448 L64.8,60.896 C64.8,63.44 64.056,65.372 62.568,66.692 C61.08,68.012 59.04,68.672 56.448,68.672 L56.448,68.672 Z M88.416,74 L88.416,31.664 L88.776,31.664 L93.024,40.088 L105.048,61.976 L117.072,40.088 L121.32,31.664 L121.68,31.664 L121.68,74 L127.584,74 L127.584,23.744 L119.808,23.744 L105.336,50.816 L104.976,50.816 L90.576,23.744 L82.512,23.744 L82.512,74 L88.416,74 Z M192.168,74 L192.168,64.28 L166.752,64.28 L191.592,33.464 L191.592,23.744 L155.304,23.744 L155.304,33.464 L178.848,33.464 L154.08,64.28 L154.08,74 L192.168,74 Z" id="IBMZ" fill="#000000" fill-rule="nonzero"></path>
    </g>
</svg>