<svg xmlns="http://www.w3.org/2000/svg" width="21.5" height="22.5"><path d="M18.75 19.5a.75.75 0 00.29-.06.66.66 0 00.24-.17.63.63 0 00.16-.24.67.67 0 00.06-.28.77.77 0 00-.22-.54.79.79 0 00-1.06 0 .77.77 0 00-.22.54.74.74 0 00.22.52.72.72 0 00.53.23z"/><path d="M20.75 16h-20a.75.75 0 00-.75.75v5a.76.76 0 00.75.75h20a.76.76 0 00.75-.75v-5.02a.75.75 0 00-.75-.73zM20 21H1.5v-3.5H20z"/><path d="M2.75 20.5h3a.75.75 0 000-1.5h-3a.75.75 0 100 1.5zm15.71-9.06a.73.73 0 00.58 0 .66.66 0 00.24-.17.73.73 0 00.22-.52.72.72 0 00-.06-.29.76.76 0 00-1-.41.81.81 0 00-.24.17.78.78 0 00-.16.24.72.72 0 00-.06.29.73.73 0 00.22.52.66.66 0 00.26.17z"/><path d="M21.5 8.73a.75.75 0 00-.75-.75h-20a.75.75 0 00-.75.75v5a.76.76 0 00.75.75h20a.76.76 0 00.75-.75zM20 12.98H1.5v-3.5H20z"/><path d="M2.75 12.5h3a.75.75 0 000-1.5h-3a.75.75 0 000 1.5zm15.47-9.22a.75.75 0 001.06 0 .76.76 0 000-1.07.79.79 0 00-1.06 0 .77.77 0 00-.22.54.82.82 0 00.22.53z"/><path d="M21.5.73a.75.75 0 00-.75-.73h-20A.75.75 0 000 .73v5a.76.76 0 00.75.75h20a.76.76 0 00.75-.75zM20 4.98H1.5V1.5H20z"/><path d="M2.75 4.5h3a.75.75 0 000-1.5h-3a.75.75 0 000 1.5z"/></svg>