<?xml version="1.0" encoding="UTF-8" standalone="no"?>
<!-- Generator: Adobe Illustrator 17.1.0, SVG Export Plug-In . SVG Version: 6.00 Build 0)  -->

<svg
   xmlns:dc="http://purl.org/dc/elements/1.1/"
   xmlns:cc="http://creativecommons.org/ns#"
   xmlns:rdf="http://www.w3.org/1999/02/22-rdf-syntax-ns#"
   xmlns:svg="http://www.w3.org/2000/svg"
   xmlns="http://www.w3.org/2000/svg"
   xmlns:sodipodi="http://sodipodi.sourceforge.net/DTD/sodipodi-0.dtd"
   xmlns:inkscape="http://www.inkscape.org/namespaces/inkscape"
   version="1.1"
   id="Layer_1"
   x="0px"
   y="0px"
   viewBox="0 0 79.364998 58.210999"
   enable-background="new 0 0 216 216"
   xml:space="preserve"
   sodipodi:docname="Icon_RH_Hardware_Laptop-A_RGB_Flat.svg"
   width="79.364998"
   height="58.210999"
   inkscape:version="0.92.4 (unknown)"><metadata
   id="metadata3799"><rdf:RDF><cc:Work
       rdf:about=""><dc:format>image/svg+xml</dc:format><dc:type
         rdf:resource="http://purl.org/dc/dcmitype/StillImage" /><dc:title></dc:title></cc:Work></rdf:RDF></metadata><defs
   id="defs3797" /><sodipodi:namedview
   pagecolor="#ffffff"
   bordercolor="#666666"
   borderopacity="1"
   objecttolerance="10"
   gridtolerance="10"
   guidetolerance="10"
   inkscape:pageopacity="0"
   inkscape:pageshadow="2"
   inkscape:window-width="1920"
   inkscape:window-height="1016"
   id="namedview3795"
   showgrid="false"
   fit-margin-top="0"
   fit-margin-left="0"
   fit-margin-right="0"
   fit-margin-bottom="0"
   inkscape:zoom="3.8194444"
   inkscape:cx="39.942"
   inkscape:cy="28.152"
   inkscape:window-x="1920"
   inkscape:window-y="27"
   inkscape:window-maximized="1"
   inkscape:current-layer="Layer_1" />
<path
   d="m 79.145,53.538 -7.787,-9.717 c -0.099,-1.07 -0.621,-2.014 -1.391,-2.682 0.854,-0.742 1.405,-1.824 1.405,-3.041 V 4.049 C 71.372,1.817 69.558,0 67.325,0 H 12.677 C 10.446,0 8.63,1.816 8.63,4.049 v 34.049 c 0,1.217 0.551,2.299 1.405,3.041 -0.764,0.662 -1.283,1.598 -1.386,2.66 L 0.243,53.508 C 0.086,53.69 0,53.922 0,54.162 c 0,2.686 1.025,4.049 3.048,4.049 h 73.269 c 2.021,0 3.048,-1.363 3.048,-4.049 0,-0.226 -0.077,-0.447 -0.22,-0.624 z M 10.63,38.098 V 4.049 C 10.63,2.92 11.548,2 12.677,2 h 54.648 c 1.13,0 2.047,0.92 2.047,2.049 v 34.049 c 0,1.129 -0.917,2.047 -2.047,2.047 H 12.677 c -1.129,0 -2.047,-0.918 -2.047,-2.047 z M 76.317,56.211 H 3.048 c -0.438,0 -0.976,0 -1.043,-1.684 l 8.381,-9.68 c 0.157,-0.182 0.244,-0.414 0.244,-0.654 0,-1.131 0.918,-2.049 2.047,-2.049 h 54.648 c 1.13,0 2.047,0.918 2.047,2.049 0,0.226 0.079,0.447 0.221,0.625 l 7.766,9.687 c -0.063,1.706 -0.603,1.706 -1.042,1.706 z M 64.648,4.313 H 41.562 c 0.009,-0.068 0.02,-0.135 0.02,-0.205 0,-0.869 -0.703,-1.574 -1.572,-1.574 -0.87,0 -1.573,0.705 -1.573,1.574 0,0.07 0.011,0.137 0.02,0.205 H 15.37 c -1.376,0 -2.497,1.199 -2.497,2.67 v 28.57 c 0,1.473 1.121,2.67 2.497,2.67 h 49.278 c 1.377,0 2.496,-1.197 2.496,-2.67 V 6.983 c 0,-1.471 -1.119,-2.67 -2.496,-2.67 z m 0.996,31.24 c 0,0.645 -0.446,1.17 -0.996,1.17 H 15.37 c -0.549,0 -0.997,-0.525 -0.997,-1.17 V 6.983 c 0,-0.645 0.448,-1.17 0.997,-1.17 h 49.278 c 0.55,0 0.996,0.525 0.996,1.17 z m -53.428,9.094 c 0,-0.277 0.224,-0.5 0.5,-0.5 h 54.678 c 0.276,0 0.5,0.223 0.5,0.5 0,0.275 -0.224,0.5 -0.5,0.5 H 12.716 c -0.276,0 -0.5,-0.225 -0.5,-0.5 z m -1.787,3.375 c 0,-0.277 0.224,-0.5 0.5,-0.5 h 57.995 c 0.274,0 0.5,0.223 0.5,0.5 0,0.275 -0.226,0.5 -0.5,0.5 H 10.929 c -0.276,0 -0.5,-0.225 -0.5,-0.5 z m -2.432,2.875 h 62.859 c 0.276,0 0.5,0.223 0.5,0.5 0,0.275 -0.224,0.5 -0.5,0.5 H 7.997 c -0.277,0 -0.5,-0.225 -0.5,-0.5 0,-0.277 0.222,-0.5 0.5,-0.5 z M 59.142,13.071 c 0.154,0.229 0.095,0.539 -0.134,0.693 l -14.396,9.668 c -0.086,0.057 -0.184,0.086 -0.281,0.086 -0.159,0 -0.316,-0.078 -0.413,-0.221 -0.155,-0.229 -0.096,-0.539 0.133,-0.693 l 14.396,-9.668 c 0.229,-0.154 0.54,-0.094 0.695,0.135 z m -7.27,8.621 c 0.155,0.229 0.095,0.541 -0.135,0.695 L 40.336,30.09 c -0.086,0.057 -0.184,0.086 -0.28,0.086 -0.16,0 -0.318,-0.078 -0.414,-0.221 -0.156,-0.229 -0.095,-0.539 0.134,-0.695 l 11.402,-7.701 c 0.227,-0.154 0.539,-0.096 0.694,0.133 z"
   id="path3792"
   inkscape:connector-curvature="0" />
</svg>