<svg width="83" height="54" xmlns="http://www.w3.org/2000/svg"><g fill="#06C" fill-rule="evenodd"><path d="M80.563 49.82H1.965a1.966 1.966 0 000 3.93h78.598a1.966 1.966 0 000-3.93M9.825 45.85h62.879c1.084 0 1.964-.881 1.964-1.966V1.965C74.668.88 73.788 0 72.704 0h-23.58a1.966 1.966 0 000 3.93h21.615v37.99h-58.95V3.93h21.615a1.966 1.966 0 000-3.93H9.824C8.74 0 7.86.88 7.86 1.965v41.92c0 1.084.88 1.964 1.965 1.964"/><path d="M39.878 3.354c.364.366.865.576 1.389.576.495 0 1.022-.21 1.388-.576a1.963 1.963 0 000-2.778c-.76-.733-2.043-.733-2.777 0-.186.184-.34.393-.419.63a1.974 1.974 0 00-.157.759c0 .262.052.498.157.76.079.236.233.445.42.629"/></g></svg>