<?xml version="1.0" encoding="UTF-8"?>
<svg width="31.7166667px" height="24px" viewBox="0 0 31.7166667 24" version="1.1" xmlns="http://www.w3.org/2000/svg" xmlns:xlink="http://www.w3.org/1999/xlink">
    <title>path8 copy</title>
    <g id="Overview-page" stroke="none" stroke-width="1" fill="none" fill-rule="evenodd">
        <g id="OCM-day-0-landing-page" transform="translate(-1048.000000, -612.000000)" fill="#EE0000" fill-rule="nonzero">
            <g id="Group-Copy-2" transform="translate(1024.000000, 589.000000)">
                <path d="M45.1666667,36.8333333 C47.25,36.8333333 50.2666667,36.4 50.2666667,33.9166667 C50.2666667,33.7266806 50.2498388,33.5370677 50.2166667,33.35 L48.9833333,27.95 C48.7,26.7666667 48.45,26.2166667 46.3666667,25.1833333 C44.75,24.35 41.2333333,23 40.1833333,23 C39.2,23 38.9166667,24.25 37.7666667,24.25 C36.65,24.25 35.8333333,23.3166667 34.7833333,23.3166667 C33.7833333,23.3166667 33.1333333,24 32.6333333,25.4 C32.6333333,25.4 31.2333333,29.35 31.05,29.9333333 C31.0224612,30.0365081 31.0112144,30.1433525 31.0166667,30.25 C31,31.7833333 37.05,36.8166667 45.1666667,36.8333333 M50.5833333,34.9333333 C50.8666667,36.3 50.8666667,36.45 50.8666667,36.6166667 C50.8666667,38.95 48.25,40.25 44.8,40.25 C37,40.25 30.1833333,35.6833333 30.1833333,32.6666667 C30.182568,32.2482801 30.2676558,31.8341859 30.4333333,31.45 C27.6333333,31.5833333 24,32.0833333 24,35.2833333 C24,40.5333333 36.4333333,47 46.2666667,47 C53.8166667,47 55.7166667,43.5833333 55.7166667,40.8833333 C55.7166667,38.7666667 53.8833333,36.3666667 50.5833333,34.9333333" id="path8-copy"></path>
            </g>
        </g>
    </g>
</svg>