<svg width="86" height="53" xmlns="http://www.w3.org/2000/svg"><g fill="#06C" fill-rule="evenodd"><path d="M72.987 40.357c.176.203.437.347.697.463a2.106 2.106 0 002.343-.463c.203-.202.376-.434.492-.694.116-.29.174-.55.174-.839a2.08 2.08 0 00-.666-1.533c-.578-.608-1.562-.81-2.343-.463-.26.087-.52.26-.697.463a2.177 2.177 0 00-.634 1.533c0 .29.058.55.145.839.116.26.29.492.489.694"/><path d="M4.34 48.214H81v-15.91H4.34v15.91zm78.83-20.25h-81A2.17 2.17 0 000 30.134v20.25a2.17 2.17 0 002.17 2.17h81a2.17 2.17 0 002.17-2.17v-20.25a2.17 2.17 0 00-2.17-2.17z"/><path d="M10.848 43.875h7.707a2.17 2.17 0 000-4.34h-7.707a2.17 2.17 0 000 4.34"/><g><path d="M72.987 12.393c.176.202.437.347.697.463a2.106 2.106 0 002.343-.463c.203-.203.376-.434.492-.694.116-.29.174-.55.174-.84a2.08 2.08 0 00-.666-1.532c-.578-.608-1.562-.81-2.343-.463-.26.086-.52.26-.697.463a2.177 2.177 0 00-.634 1.533c0 .29.058.55.145.839.116.26.29.492.489.694"/><path d="M4.34 20.25H81V4.34H4.34v15.91zM83.17 0h-81A2.17 2.17 0 000 2.17v20.25a2.17 2.17 0 002.17 2.17h81a2.17 2.17 0 002.17-2.17V2.17A2.17 2.17 0 0083.17 0z"/><path d="M10.848 15.91h7.707a2.17 2.17 0 000-4.339h-7.707a2.17 2.17 0 000 4.34"/></g></g></svg>